# xmcd
#
# Track frame offsets: 
#        150
#        22622
#        38862
#        53024
#        73809
#        98426
#        123088
#        142988
#        165025
#        184760
#        206580
#        228940
#        249680
#        268777
#        290897
#        307489
#        324209
#
# Disc length: 4612 seconds
#
# Revision: 0
# Processed by: cddbd v1.5.2PL0 Copyright (c) Steve Scherf et al.
# Submitted via: ExactAudioCopy v1.0b3
#
DISCID=e7120211
DTITLE=Colin James - Take It From The Top: Best Of
DYEAR=2011
DGENRE=Blues
TTITLE0=Just Came Back
TTITLE1=Man's Gotta Be A Stone
TTITLE2=It's Gonna Be Alright
TTITLE3=Five Long Years
TTITLE4=Why'd You Lie?
TTITLE5=Freedom
TTITLE6=Into The Mystic
TTITLE7=National Steel
TTITLE8=Real Stuff
TTITLE9=Hide
TTITLE10=I'm Losing You
TTITLE11=I Hope You're Happy
TTITLE12=Them Changes
TTITLE13=Make A Mistake
TTITLE14=Voodoo Thing
TTITLE15=Keep On Loving Me Baby
TTITLE16=Stay
EXTD=
EXTT0=
EXTT1=
EXTT2=
EXTT3=
EXTT4=
EXTT5=
EXTT6=
EXTT7=
EXTT8=
EXTT9=
EXTT10=
EXTT11=
EXTT12=
EXTT13=
EXTT14=
EXTT15=
EXTT16=
PLAYORDER=
